<svg xmlns="http://www.w3.org/2000/svg" width="4500" height="5500" viewBox="0 0 4500 5500"><path d="M1650 1600 L2250 1600 M1950 1600 L1500 2400 L1750 2400 L1350 3200 L1700 3200 L1250 3900 L2650 3900 L2200 3200 L2550 3200 L2150 2400 L2400 2400 L1950 1600" stroke="#4DFF7A" stroke-width="60" fill="none" stroke-linecap="round" stroke-linejoin="round"/><path d="M2850 3900 C 2780 3520 2900 3280 3100 3270 C 3300 3280 3420 3520 3350 3900 Z" stroke="#FF4FA3" stroke-width="60" fill="none" stroke-linecap="round" stroke-linejoin="round"/><path d="M2930 3220 C 2870 3020 2990 2910 3100 2910 C 3210 2910 3330 3020 3270 3220 Z M2910 3020 L2940 2790 L3050 2915 M3290 3020 L3260 2790 L3150 2915" stroke="#FF4FA3" stroke-width="60" fill="none" stroke-linecap="round" stroke-linejoin="round"/><path d="M3350 3860 C 3620 3860 3660 3640 3530 3520" stroke="#FF4FA3" stroke-width="60" fill="none" stroke-linecap="round" stroke-linejoin="round"/><polygon points="1950,1330 1987,1429 2093,1434 2010,1499 2038,1601 1950,1543 1862,1601 1890,1499 1807,1434 1913,1429" fill="#FFE45C"/><path d="M564.5939319133321 932.2694443981119H538.4576251396927Q521.825429920104 932.2694443981119 514.4813437192468 923.7373442529981Q507.1372575183894 915.2052441078845 507.1372575183894 901.1650793121278Q507.1372575183894 870.0607142261438 553.5778026120461 870.0607142261438Q597.2103147465515 870.0607142261438 619.2425733491234 883.0208663453038L606.7144263006021 892.5249778993546Q591.5942488282487 885.6128967691359 553.5778026120461 885.6128967691359Q535.0015845745834 885.6128967691359 528.629509782663 889.7169449402032Q522.2574349907427 893.8209931112706 522.2574349907427 901.1650793121279Q522.2574349907427 908.5091655129852 525.713475555852 912.6132136840525Q529.1695161209614 916.7172618551199 538.4576251396927 916.7172618551199H565.2419395192901Q594.4022817874002 916.7172618551199 617.8385568695478 926.6533784798091Q641.2748319516954 936.5894951044985 656.3950094240488 953.7616966623855Q671.5151868964022 970.9338982202726 679.5072807032175 993.2901606258235Q687.4993745100328 1015.6464230313745 687.4993745100328 1041.134722199056Q687.4993745100328 1061.870965589712 681.6673060564108 1080.4471836271746Q675.8352376027888 1099.0234016646373 664.0630994278852 1114.5755842076292Q652.2909612529816 1130.1277667506213 635.7667673010525 1141.4678998548864Q619.2425733491234 1152.8080329591514 596.4543058729338 1159.1801077510718Q573.6660383967442 1165.552182542992 547.0977265524662 1165.552182542992Q505.4092372358347 1165.552182542992 469.01281003452704 1152.916034226811Q432.61638283321935 1140.27988591063 408.424098877454 1117.5996197021L420.9522459259754 1108.3115106833686Q442.98450452854735 1128.1837439327473 476.140893700065 1139.0918719663737Q509.29728287158275 1150.0 547.0977265524662 1150.0Q576.6900738912148 1150.0 600.5583540440011 1141.4678998548864Q624.4266341967875 1132.9357997097727 639.8708154721198 1118.0316247727387Q655.3149967474521 1103.1274498357047 663.6310943572465 1083.4712191216454Q671.9471919670409 1063.814988407586 671.9471919670409 1041.134722199056Q671.9471919670409 1011.1103697896685 659.8510499891581 986.8100845662435Q647.7549080112755 962.5097993428185 623.0226177172118 947.3896218704651Q598.2903274231481 932.2694443981119 564.5939319133321 932.2694443981119ZM538.4576251396927 947.8216269411039H563.0819141660968Q606.9304288359215 947.8216269411039 631.6627191299851 974.6059413207013Q656.3950094240488 1001.3902557002986 656.3950094240488 1041.134722199056Q656.3950094240488 1081.5271963037712 627.6666722265775 1107.9875068803894Q598.9383350291062 1134.447817457008 547.0977265524662 1134.447817457008Q512.5373209013727 1134.447817457008 482.51296849198536 1124.9437059029574Q452.488616082598 1115.4395943489067 432.61638283321935 1098.15939152336L444.712524811102 1088.43927743399Q462.4247327072874 1102.9114473003854 489.3170483545444 1110.9035411072007Q516.2093640018014 1118.895634914016 547.0977265524662 1118.895634914016Q592.6742615048454 1118.895634914016 616.7585441929511 1097.0793788467633Q640.8428268810568 1075.2631227795107 640.8428268810568 1041.134722199056Q640.8428268810568 1007.43832668924 620.6465898286991 985.4060680866679Q600.4503527763414 963.3738094840959 562.8659116307774 963.3738094840959H538.4576251396927Q506.92125498307007 963.3738094840959 491.1530699047587 946.0936066585492Q475.3848848264474 928.8134038330026 475.3848848264474 901.1650793121278Q475.3848848264474 873.5167547912531 494.9331142728471 856.2365519657064Q514.4813437192468 838.9563491401598 553.5778026120461 838.9563491401598Q581.0101245976015 838.9563491401598 604.5544009474088 845.3284239320801Q628.0986772972161 851.7004987240005 643.4348573048889 863.5806381665639L631.1227127916868 873.0847497206145Q604.1223958767702 854.5085316831519 553.5778026120461 854.5085316831519Q520.9614197788268 854.5085316831519 505.9492435741331 867.3606825346521Q490.9370673694394 880.2128333861525 490.9370673694394 901.1650793121278Q490.9370673694394 922.3333277734225 502.061197938385 935.0774773572632Q513.1853285073307 947.8216269411039 538.4576251396927 947.8216269411039ZM538.4576251396927 978.9259920270879H562.2179040248194Q593.7542741814422 978.9259920270879 609.5224592597535 996.4221973879539Q625.2906443380648 1013.91840274882 625.2906443380648 1041.134722199056Q625.2906443380648 1068.7830467199306 605.7424148916651 1086.0632495454772Q586.1941854452655 1103.343452371024 547.0977265524662 1103.343452371024Q519.6654045669108 1103.343452371024 496.01312694944374 1096.9713775791035Q472.36084933197674 1090.5993027871832 457.02466932430406 1078.71916334462L469.33681383750604 1069.2150517905693Q496.3371307524227 1087.791269828032 547.0977265524662 1087.791269828032Q579.7141093856854 1087.791269828032 594.7262855903791 1074.9391189765315Q609.7384617950728 1062.0869681250313 609.7384617950728 1041.134722199056Q609.7384617950728 1020.1824762730806 598.5063299584674 1007.3303254215803Q587.2741981218621 994.4781745700799 562.0019014895001 994.4781745700799H538.4576251396927Q494.1771053992294 994.4781745700799 469.22881256984635 968.0178639934616Q444.2805197404634 941.5575534168432 444.2805197404634 901.1650793121278Q444.2805197404634 860.7726052074124 473.00885693793475 834.3122946307941Q501.73719413540607 807.8519840541758 553.5778026120461 807.8519840541758Q588.1382082631394 807.8519840541758 618.0545594048672 817.3560956082265Q647.9709105465948 826.8602071622771 667.8431437959734 844.1404099878239L655.7470018180909 853.8605240771938Q638.0347939219055 839.3883542107985 611.2504795423081 831.3962604039832Q584.4661651627108 823.4041665971678 553.5778026120461 823.4041665971678Q508.0012676596667 823.4041665971678 483.9169849715611 845.2204226644205Q459.8327022834554 867.0366787316732 459.8327022834554 901.1650793121278Q459.8327022834554 935.0774773572632 480.1369406034727 957.0017346921755Q500.44117892349004 978.9259920270879 538.4576251396927 978.9259920270879ZM538.4576251396927 1010.0303571130719H562.2179040248194Q578.850099244408 1010.0303571130719 586.1941854452655 1018.6704585258452Q593.5382716461228 1027.3105599386186 593.5382716461228 1041.134722199056Q593.5382716461228 1072.23908728504 547.0977265524662 1072.23908728504Q503.2492118826414 1072.23908728504 481.2169532800694 1059.2789351658798L493.74510032859075 1049.7748236118293Q508.86527780094406 1056.686904742048 547.0977265524662 1056.686904742048Q565.6739445899287 1056.686904742048 572.0460193818491 1052.5828565709808Q578.4180941737694 1048.4788083999133 578.4180941737694 1041.134722199056Q578.4180941737694 1034.0066385335178 574.8540523410004 1029.7945890947908Q571.2900105082315 1025.582539656064 561.7858989541808 1025.582539656064H538.4576251396927Q508.64927526562474 1025.582539656064 484.5649925775191 1015.8624255666939Q460.4807098894134 1006.1423114773239 445.036528614081 989.0781111870965Q429.5923473387487 972.0139108968692 421.384250996614 949.5496472236586Q413.1761546544793 927.0853835504479 413.1761546544793 901.1650793121278Q413.1761546544793 880.4288359214718 419.00822310810133 861.8526178840091Q424.84029156172335 843.2763998465465 436.612429736627 827.7242173035545Q448.38456791153067 812.1720347605624 464.9087618634597 800.8319016562974Q481.4329558153887 789.4917685520325 504.2212232915784 783.1196937601121Q527.009490767768 776.7476189681918 553.5778026120461 776.7476189681918Q595.2662919286774 776.7476189681918 631.5547178623254 789.3837672843728Q667.8431437959734 802.0199156005538 692.0354277517388 824.7001818090838L679.5072807032175 833.9882908278151Q657.4750221006454 814.1160575784364 624.4266341967875 803.2079295448101Q591.3782462929295 792.2998015111838 553.5778026120461 792.2998015111838Q523.9854552732975 792.2998015111838 500.1171751205111 800.8319016562975Q476.2488949677247 809.3640018014112 460.8047136923924 824.2681767384452Q445.36053241706 839.1723516754791 437.0444348072657 858.8285823895385Q428.7283371974714 878.4848131035978 428.7283371974714 901.1650793121278Q428.7283371974714 931.6214367921539 441.04048171067336 956.0297232832386Q453.35262622387535 980.4380097743233 478.6249228562374 995.2341834436976Q503.8972194885994 1010.0303571130719 538.4576251396927 1010.0303571130719ZM986.477740897036 992.7501542875252V792.2998015111838H1002.0299234400279V992.7501542875252Q1002.0299234400279 1025.582539656064 976.1096192017079 1048.910813470552Q950.1893149633879 1072.23908728504 913.9008890297399 1072.23908728504Q877.6124630960919 1072.23908728504 851.6921588577719 1048.910813470552Q825.7718546194519 1025.582539656064 825.7718546194519 992.7501542875252V792.2998015111838H841.3240371624439V992.7501542875252Q841.3240371624439 1019.1024635964839 862.6002868913982 1037.894684169266Q883.8765366203526 1056.686904742048 913.9008890297399 1056.686904742048Q943.9252414391273 1056.686904742048 965.2014911680817 1037.894684169266Q986.477740897036 1019.1024635964839 986.477740897036 992.7501542875252ZM1017.58210598302 992.7501542875252V792.2998015111838H1033.134288526012V992.7501542875252Q1033.134288526012 1015.2144179607359 1023.6301769719613 1035.6266575484128Q1014.1260654179107 1056.0388971360899 998.14187780428 1070.9430720731239Q982.1576901906493 1085.8472470101578 960.1254315880773 1094.5953496905909Q938.0931729855052 1103.343452371024 913.9008890297399 1103.343452371024Q889.7086050739746 1103.343452371024 867.6763464714026 1094.5953496905909Q845.6440878688305 1085.8472470101578 829.6599002551998 1070.9430720731239Q813.6757126415691 1056.0388971360899 804.1716010875184 1035.6266575484128Q794.6674895334678 1015.2144179607359 794.6674895334678 992.7501542875252V792.2998015111838H810.2196720764598V992.7501542875252Q810.2196720764598 1018.454455990526 824.1518356045568 1040.3787133254382Q838.0839991326538 1062.3029706603506 861.9522792854402 1075.0471202441913Q885.8205594382266 1087.791269828032 913.9008890297399 1087.791269828032Q941.9812186212532 1087.791269828032 965.8494987740396 1075.0471202441913Q989.717778926826 1062.3029706603506 1003.649942454923 1040.3787133254382Q1017.58210598302 1018.454455990526 1017.58210598302 992.7501542875252ZM1048.686471069004 992.7501542875252V792.2998015111838H1064.2386536119961V992.7501542875252Q1064.2386536119961 1021.4784914849965 1052.2505129017732 1047.7227995262956Q1040.26237219155 1073.9671075675947 1020.174136406852 1092.9753306756961Q1000.085900622154 1111.9835537837973 972.2215735659599 1123.2156856204026Q944.3572465097659 1134.447817457008 913.9008890297399 1134.447817457008Q883.4445315497139 1134.447817457008 855.5802044935199 1123.2156856204026Q827.7158774373258 1111.9835537837973 807.6276416526279 1092.9753306756961Q787.5394058679299 1073.9671075675947 775.5512651577069 1047.7227995262956Q763.5631244474838 1021.4784914849965 763.5631244474838 992.7501542875252V792.2998015111838H779.1153069904758V992.7501542875252Q779.1153069904758 1026.8785548679798 797.2595199572999 1055.93089586843Q815.4037329241239 1084.9832368688806 846.4000967424482 1101.9394358914483Q877.3964605607725 1118.895634914016 913.9008890297399 1118.895634914016Q950.4053174987073 1118.895634914016 981.4016813170316 1101.9394358914483Q1012.3980451353559 1084.9832368688806 1030.5422581021799 1055.93089586843Q1048.686471069004 1026.8785548679798 1048.686471069004 992.7501542875252ZM1079.790836154988 992.7501542875252V792.2998015111838H1095.34301869798V992.7501542875252Q1095.34301869798 1039.4067019165013 1070.9347322068952 1079.2591696829184Q1046.5264457158107 1119.1116374493354 1004.7299551315197 1142.3319099961636Q962.9334645472286 1165.552182542992 913.9008890297399 1165.552182542992Q864.8683135122512 1165.552182542992 823.0718229279602 1142.3319099961636Q781.2753323436691 1119.1116374493354 756.8670458525844 1079.2591696829184Q732.4587593614998 1039.4067019165013 732.4587593614998 992.7501542875252V792.2998015111838H748.0109419044918V992.7501542875252Q748.0109419044918 1024.5025269794673 761.1870965589711 1053.6628692475774Q774.3632512134504 1082.8232115156873 796.6115123513418 1103.8834587093224Q818.8597734892332 1124.9437059029574 849.6401347722383 1137.4718529514787Q880.4204960552432 1150.0 913.9008890297399 1150.0Q947.3812820042366 1150.0 978.1616432872415 1137.4718529514787Q1008.9420045702466 1124.9437059029574 1031.190265708138 1103.8834587093224Q1053.4385268460294 1082.8232115156873 1066.6146815005086 1053.6628692475774Q1079.790836154988 1024.5025269794673 1079.790836154988 992.7501542875252ZM1268.8239120644505 980.6540123096426H1359.112971827932Q1381.3612329658233 980.6540123096426 1396.8054142411556 965.6418361049489Q1412.249595516488 950.6296599002552 1412.249595516488 923.1973379146998Q1412.249595516488 902.6770970593632 1396.049405367538 886.3689056427535Q1379.849215218588 870.0607142261438 1359.112971827932 870.0607142261438H1225.6234050005837V1150.0H1210.0712224575918V854.5085316831519H1359.112971827932Q1386.3292912781678 854.5085316831519 1407.065534668824 875.4607776091273Q1427.80177805948 896.4130235351025 1427.80177805948 923.1973379146998Q1427.80177805948 956.2457258185578 1407.713542274782 976.2259603355963Q1387.6253064900839 996.2061948526346 1359.112971827932 996.2061948526346H1268.8239120644505ZM1268.8239120644505 1011.7583773956266H1359.112971827932Q1381.5772355011425 1011.7583773956266 1400.6934598769035 1000.8502493620002Q1419.8096842526645 989.9421213283739 1431.581822427568 969.4218804730372Q1443.353960602472 948.9016396177005 1443.353960602472 923.1973379146998Q1443.353960602472 889.9329474755225 1417.9736627024504 864.4446483078411Q1392.5933648024286 838.9563491401598 1359.112971827932 838.9563491401598H1194.5190399145997V1150.0H1178.9668573716078V823.4041665971678H1359.112971827932Q1385.2492786015712 823.4041665971678 1408.3615498807399 837.2283288576052Q1431.4738211599085 851.0524911180426 1445.1899821526863 874.1647623972112Q1458.9061431454638 897.2770336763798 1458.9061431454638 923.1973379146998Q1458.9061431454638 952.5736827181292 1445.0819808850265 976.6579654062349Q1431.2578186245892 1000.7422480943405 1408.4695511483997 1014.0264040164795Q1385.68128367221 1027.3105599386186 1359.112971827932 1027.3105599386186H1268.8239120644505ZM1268.8239120644505 1042.8627424816107H1359.112971827932Q1382.2252431071006 1042.8627424816107 1403.3934915683953 1033.6826347305391Q1424.5617400296899 1024.5025269794673 1440.2219238403416 1008.8423431688157Q1455.8821076509932 993.1821593581639 1465.1702166697246 970.8258969526129Q1474.458325688456 948.4696345470619 1474.458325688456 923.1973379146998Q1474.458325688456 892.9569829699932 1458.6901406101447 866.2806698580555Q1442.9219555318332 839.6043567461178 1416.2456424198956 823.7281704001468Q1389.569329307958 807.8519840541758 1359.112971827932 807.8519840541758H1163.4146748286157V1150.0H1147.8624922856238V792.2998015111838H1359.112971827932Q1393.6733774790252 792.2998015111838 1423.9137324237317 810.336013210348Q1454.1540873684385 828.3722249095124 1472.0822977999433 858.6125798542191Q1490.010508231448 888.8529347989258 1490.010508231448 923.1973379146998Q1490.010508231448 953.8696979300453 1479.4263840008007 979.6820009007056Q1468.8422597701533 1005.4943038713659 1450.9140493386485 1022.5585041615932Q1432.985838907144 1039.6227044518205 1409.2255600220174 1049.0188147382114Q1385.4652811368906 1058.4149250246026 1359.112971827932 1058.4149250246026H1268.8239120644505ZM1256.7277700865677 1150.0H1241.1755875435758V885.6128967691359H1359.112971827932Q1374.4491518356047 885.6128967691359 1385.5732824045504 896.8450286057412Q1396.6974129734958 908.0771604423466 1396.6974129734958 923.1973379146998Q1396.6974129734958 965.1018297666506 1359.112971827932 965.1018297666506H1268.8239120644505V949.5496472236586H1359.112971827932Q1369.48109352326 949.5496472236586 1375.313161976882 943.7175787700365Q1381.145230430504 937.8855103164145 1381.145230430504 923.1973379146998Q1381.145230430504 913.6932263606492 1374.7731556385836 907.4291528363885Q1368.4010808466633 901.1650793121278 1359.112971827932 901.1650793121278H1256.7277700865677ZM1614.674828615749 1150.0H1599.122646072757V792.2998015111838H1614.674828615749ZM1583.570463529765 1150.0H1568.018280986773V792.2998015111838H1583.570463529765ZM1552.466098443781 1150.0H1536.913915900789V792.2998015111838H1552.466098443781ZM1645.779193701733 1072.23908728504H1811.2371357563425V1087.791269828032H1645.779193701733V1103.343452371024H1811.2371357563425V1118.895634914016H1645.779193701733V1134.447817457008H1811.2371357563425V1150.0H1630.227011158741V792.2998015111838H1811.2371357563425V807.8519840541758H1645.779193701733V823.4041665971678H1811.2371357563425V838.9563491401598H1645.779193701733V854.5085316831519H1811.2371357563425V870.0607142261438H1645.779193701733V932.2694443981119H1730.6681900822311V947.8216269411039H1645.779193701733V963.3738094840959H1730.6681900822311V978.9259920270879H1645.779193701733V994.4781745700799H1730.6681900822311V1010.0303571130719H1645.779193701733ZM1979.7499708104683 972.0139108968692H2073.495071139059Q2094.879322135673 972.0139108968692 2109.6754958050474 958.1897486364319Q2124.4716694744216 944.3655863759946 2124.4716694744216 918.8772872083132Q2124.4716694744216 900.0850666355311 2108.9194869314297 885.0728904308374Q2093.367304388438 870.0607142261438 2073.495071139059 870.0607142261438H1940.0055043117109V1150.0H1924.453321768719V854.5085316831519H2073.495071139059Q2099.8473804480177 854.5085316831519 2119.935616232716 874.0567611295515Q2140.023852017414 893.6049905759512 2140.023852017414 918.8772872083132Q2140.023852017414 949.9816522942972 2120.5836238386737 968.7738728670793Q2101.143395659934 987.5660934398612 2073.495071139059 987.5660934398612H1979.7499708104683ZM1979.7499708104683 1003.1182759828532H2073.495071139059Q2107.191466648875 1003.1182759828532 2131.38375060464 979.4659983653862Q2155.576034560406 955.8137207479192 2155.576034560406 918.8772872083132Q2155.576034560406 887.1249145163712 2130.843744266342 863.0406318282655Q2106.1114539722785 838.9563491401598 2073.495071139059 838.9563491401598H1908.9011392257269V1150.0H1893.348956682735V823.4041665971678H2073.495071139059Q2099.19937284206 823.4041665971678 2121.77163778293 836.5803212516471Q2144.3439027238005 849.7564759061265 2157.736059913599 871.8967357763581Q2171.1282171033977 894.0369956465898 2171.1282171033977 918.8772872083132Q2171.1282171033977 961.4297866662218 2142.291878638267 990.0501225960336Q2113.455540173136 1018.6704585258452 2073.495071139059 1018.6704585258452H1979.7499708104683ZM1979.7499708104683 1034.2226410688372H2073.495071139059Q2103.7354260837656 1034.2226410688372 2129.6557303220857 1019.3184661318032Q2155.576034560406 1004.4142911947692 2171.1282171033977 977.7379780828315Q2186.6803996463896 951.0616649708938 2186.6803996463896 918.8772872083132Q2186.6803996463896 889.7169449402031 2171.2362183710575 864.1206445048622Q2155.792037095725 838.5243440695211 2129.6557303220857 823.1881640618485Q2103.5194235484464 807.8519840541758 2073.495071139059 807.8519840541758H1877.7967741397429V1150.0H1862.244591596751V792.2998015111838H2073.495071139059Q2107.4074691841943 792.2998015111838 2137.2158190582622 809.6880056043901Q2167.02416893233 827.0762096975965 2184.628375560856 856.3445532333662Q2202.232582189382 885.6128967691359 2202.232582189382 918.8772872083132Q2202.232582189382 957.3257384951546 2185.7083882374527 986.4860807632646Q2169.1841942855235 1015.6464230313745 2140.887862158691 1032.062615715644L2181.064333728087 1150.0H2164.6481410438178L2126.1996897569766 1039.4067019165013Q2117.559588344203 1042.8627424816107 2113.023535102497 1044.1587576935267L2149.095958500826 1150.0H2132.6797658165565L2097.4713525595052 1047.8308007939552Q2095.527329741631 1048.262805864594 2083.647190299068 1049.3428185411906L2117.1275832735646 1150.0H2100.711390589295L2067.663002685437 1049.7748236118293H2053.6228378896803L2085.159208046303 1150.0H2068.7430153620335L2036.9906426700916 1049.7748236118293H1979.7499708104683ZM1971.1098693976949 1150.0H1955.557686854703V885.6128967691359H2073.495071139059Q2087.9672410054545 885.6128967691359 2098.443363968442 895.4410121261656Q2108.9194869314297 905.2691274831952 2108.9194869314297 918.8772872083132Q2108.9194869314297 956.4617283538772 2073.495071139059 956.4617283538772H1979.7499708104683V940.9095458108852H2073.495071139059Q2082.7831801577904 940.9095458108852 2088.075242273114 936.0494887662003Q2093.367304388438 931.1894317215152 2093.367304388438 918.8772872083132Q2093.367304388438 911.3171984721365 2087.6432372024756 906.2411388921321Q2081.919170016513 901.1650793121278 2073.495071139059 901.1650793121278H1971.1098693976949ZM2236.1758377395627 792.2998015111838H2253.024035494471L2386.08159725118 1129.0477540740246L2519.1391590078897 792.2998015111838H2535.7713542274782L2394.505696128634 1150.0H2377.657498373726ZM2396.8817240171466 1072.23908728504 2388.025620069054 1092.1113205344186 2269.6562307140593 792.2998015111838H2286.288425933648ZM2413.5139192367355 1029.6865878271312 2405.3058228946006 1051.0708388237454 2303.136623688556 792.2998015111838H2319.984821443464ZM2429.930111921005 986.4860807632646 2421.72201557887 1008.3023368305172 2336.6170166630527 792.2998015111838H2353.2492118826412ZM2619.36433539606 792.2998015111838H2636.2125331509683L2494.730872516805 1150.0H2478.098677297216ZM2586.099944956883 792.2998015111838H2602.7321401764716L2461.2504795423083 1150.0H2444.6182843227193ZM2552.403549447067 792.2998015111838H2569.251747201975L2427.7700865678116 1150.0H2411.1378913482226ZM2770.596967624639 792.2998015111838H2786.1491501676314V1150.0H2770.596967624639ZM2739.4926025386553 792.2998015111838H2755.044785081647V1150.0H2739.4926025386553ZM2708.388237452671 792.2998015111838H2723.9404199956634V1150.0H2708.388237452671ZM2677.2838723666873 792.2998015111838H2692.836054909679V1150.0H2677.2838723666873ZM2984.4703350958252 932.2694443981119H2958.334028322186Q2941.701833102597 932.2694443981119 2934.35774690174 923.7373442529981Q2927.0136607008826 915.2052441078845 2927.0136607008826 901.1650793121278Q2927.0136607008826 870.0607142261438 2973.454205794539 870.0607142261438Q3017.0867179290444 870.0607142261438 3039.1189765316167 883.0208663453038L3026.590829483095 892.5249778993546Q3011.470652010742 885.6128967691359 2973.454205794539 885.6128967691359Q2954.8779877570764 885.6128967691359 2948.5059129651563 889.7169449402032Q2942.1338381732357 893.8209931112706 2942.1338381732357 901.1650793121279Q2942.1338381732357 908.5091655129852 2945.589878738345 912.6132136840525Q2949.0459193034544 916.7172618551199 2958.334028322186 916.7172618551199H2985.118342701783Q3014.278684969893 916.7172618551199 3037.7149600520406 926.6533784798091Q3061.1512351341885 936.5894951044985 3076.271412606542 953.7616966623855Q3091.391590078895 970.9338982202726 3099.3836838857105 993.2901606258235Q3107.375777692526 1015.6464230313745 3107.375777692526 1041.134722199056Q3107.375777692526 1061.870965589712 3101.543709238904 1080.4471836271746Q3095.711640785282 1099.0234016646373 3083.9395026103784 1114.5755842076292Q3072.1673644354746 1130.1277667506213 3055.643170483546 1141.4678998548864Q3039.1189765316167 1152.8080329591514 3016.330709055427 1159.1801077510718Q2993.542441579237 1165.552182542992 2966.974129734959 1165.552182542992Q2925.2856404183276 1165.552182542992 2888.88921321702 1152.916034226811Q2852.492786015712 1140.27988591063 2828.300502059947 1117.5996197021L2840.828649108468 1108.3115106833686Q2862.8609077110405 1128.1837439327473 2896.017296882558 1139.0918719663737Q2929.173686054076 1150.0 2966.974129734959 1150.0Q2996.566477073708 1150.0 3020.434757226494 1141.4678998548864Q3044.3030373792803 1132.9357997097727 3059.747218654613 1118.0316247727387Q3075.1913999299454 1103.1274498357047 3083.5074975397397 1083.4712191216454Q3091.823595149534 1063.814988407586 3091.823595149534 1041.134722199056Q3091.823595149534 1011.1103697896685 3079.727453171651 986.8100845662435Q3067.6313111937684 962.5097993428185 3042.8990208997047 947.3896218704651Q3018.166730605641 932.2694443981119 2984.4703350958252 932.2694443981119ZM2958.334028322186 947.8216269411039H2982.95831734859Q3026.8068320184148 947.8216269411039 3051.5391223124784 974.6059413207013Q3076.271412606542 1001.3902557002986 3076.271412606542 1041.134722199056Q3076.271412606542 1081.5271963037712 3047.5430754090703 1107.9875068803894Q3018.814738211599 1134.447817457008 2966.974129734959 1134.447817457008Q2932.413724083866 1134.447817457008 2902.3893716744788 1124.9437059029574Q2872.365019265091 1115.4395943489067 2852.492786015712 1098.15939152336L2864.588927993595 1088.43927743399Q2882.30113588978 1102.9114473003854 2909.1934515370376 1110.9035411072007Q2936.0857671842946 1118.895634914016 2966.974129734959 1118.895634914016Q3012.5506646873387 1118.895634914016 3036.6349473754444 1097.0793788467633Q3060.7192300635497 1075.2631227795107 3060.7192300635497 1041.134722199056Q3060.7192300635497 1007.43832668924 3040.522993011192 985.4060680866679Q3020.3267559588344 963.3738094840959 2982.7423148132707 963.3738094840959H2958.334028322186Q2926.797658165563 963.3738094840959 2911.029473087252 946.0936066585492Q2895.2612880089405 928.8134038330026 2895.2612880089405 901.1650793121278Q2895.2612880089405 873.5167547912531 2914.80951745534 856.2365519657064Q2934.3577469017396 838.9563491401598 2973.454205794539 838.9563491401598Q3000.8865277800946 838.9563491401598 3024.430804129902 845.3284239320801Q3047.975080479709 851.7004987240005 3063.311260487382 863.5806381665639L3050.99911597418 873.0847497206145Q3023.998799059263 854.5085316831519 2973.454205794539 854.5085316831519Q2940.83782296132 854.5085316831519 2925.825646756626 867.3606825346521Q2910.8134705519324 880.2128333861525 2910.8134705519324 901.1650793121278Q2910.8134705519324 922.3333277734225 2921.937601120878 935.0774773572632Q2933.061731689824 947.8216269411039 2958.334028322186 947.8216269411039ZM2958.334028322186 978.9259920270879H2982.0943072073123Q3013.6306773639353 978.9259920270879 3029.3988624422464 996.4221973879539Q3045.167047520558 1013.91840274882 3045.167047520558 1041.134722199056Q3045.167047520558 1068.7830467199306 3025.6188180741583 1086.0632495454772Q3006.0705886277583 1103.343452371024 2966.974129734959 1103.343452371024Q2939.5418077494037 1103.343452371024 2915.8895301319367 1096.9713775791035Q2892.2372525144697 1090.5993027871832 2876.901072506797 1078.71916334462L2889.2132170199993 1069.2150517905693Q2916.2135339349156 1087.791269828032 2966.974129734959 1087.791269828032Q2999.5905125681784 1087.791269828032 3014.602688772872 1074.9391189765315Q3029.614864977566 1062.0869681250313 3029.614864977566 1041.134722199056Q3029.614864977566 1020.1824762730806 3018.3827331409607 1007.3303254215803Q3007.1506013043554 994.4781745700799 2981.878304671993 994.4781745700799H2958.334028322186Q2914.0535085817223 994.4781745700799 2889.105215752339 968.0178639934616Q2864.1569229229563 941.5575534168432 2864.1569229229563 901.1650793121278Q2864.1569229229563 860.7726052074124 2892.8852601204276 834.3122946307941Q2921.613597317899 807.8519840541758 2973.454205794539 807.8519840541758Q3008.0146114456325 807.8519840541758 3037.93096258736 817.3560956082265Q3067.847313729088 826.8602071622771 3087.7195469784665 844.1404099878239L3075.6234050005837 853.8605240771938Q3057.9111971043985 839.3883542107985 3031.1268827248014 831.3962604039832Q3004.3425683452037 823.4041665971678 2973.454205794539 823.4041665971678Q2927.8776708421597 823.4041665971678 2903.793388154054 845.2204226644205Q2879.7091054659486 867.0366787316732 2879.7091054659486 901.1650793121278Q2879.7091054659486 935.0774773572632 2900.013343785966 957.0017346921755Q2920.317582105983 978.9259920270879 2958.334028322186 978.9259920270879ZM2958.334028322186 1010.0303571130719H2982.0943072073123Q2998.7265024269013 1010.0303571130719 3006.0705886277583 1018.6704585258452Q3013.4146748286157 1027.3105599386186 3013.4146748286157 1041.134722199056Q3013.4146748286157 1072.23908728504 2966.974129734959 1072.23908728504Q2923.1256150651343 1072.23908728504 2901.0933564625625 1059.2789351658798L2913.6215035110836 1049.7748236118293Q2928.741680983437 1056.686904742048 2966.974129734959 1056.686904742048Q2985.550347772422 1056.686904742048 2991.922422564342 1052.5828565709808Q2998.2944973562626 1048.4788083999133 2998.2944973562626 1041.134722199056Q2998.2944973562626 1034.0066385335178 2994.730455523493 1029.7945890947908Q2991.1664136907243 1025.582539656064 2981.662302136674 1025.582539656064H2958.334028322186Q2928.525678448118 1025.582539656064 2904.4413957600123 1015.8624255666939Q2880.3571130719065 1006.1423114773239 2864.9129317965744 989.0781111870965Q2849.468750521242 972.0139108968692 2841.2606541791074 949.5496472236586Q2833.0525578369725 927.0853835504479 2833.0525578369725 901.1650793121278Q2833.0525578369725 880.4288359214718 2838.8846262905945 861.8526178840091Q2844.7166947442165 843.2763998465465 2856.48883291912 827.7242173035545Q2868.2609710940237 812.1720347605624 2884.7851650459525 800.8319016562974Q2901.3093589978816 789.4917685520325 2924.097626474071 783.1196937601121Q2946.885893950261 776.7476189681918 2973.454205794539 776.7476189681918Q3015.1426951111707 776.7476189681918 3051.4311210448186 789.3837672843728Q3087.7195469784665 802.0199156005538 3111.911830934232 824.7001818090838L3099.3836838857105 833.9882908278151Q3077.3514252831387 814.1160575784364 3044.303037379281 803.2079295448101Q3011.2546494754224 792.2998015111838 2973.454205794539 792.2998015111838Q2943.8618584557903 792.2998015111838 2919.993578303004 800.8319016562975Q2896.1252981502175 809.3640018014112 2880.6811168748854 824.2681767384452Q2865.236935599553 839.1723516754791 2856.9208379897586 858.8285823895385Q2848.6047403799644 878.4848131035978 2848.6047403799644 901.1650793121278Q2848.6047403799644 931.6214367921539 2860.9168848931663 956.0297232832386Q2873.229029406368 980.4380097743233 2898.5013260387304 995.2341834436976Q2923.7736226710927 1010.0303571130719 2958.334028322186 1010.0303571130719ZM3247.8082831551383 792.2998015111838H3263.3604656981306V1150.0H3247.8082831551383ZM3216.7039180691545 792.2998015111838H3232.2561006121464V1150.0H3216.7039180691545ZM3185.5995529831703 792.2998015111838H3201.1517355261626V1150.0H3185.5995529831703ZM3154.4951878971865 792.2998015111838H3170.0473704401784V1150.0H3154.4951878971865ZM3571.1949360332264 977.8459793504912 3555.6427534902346 952.1416776474905V792.2998015111838H3571.1949360332264ZM3602.29930111921 1028.822577685854 3586.7471185762183 1002.6862709122146V792.2998015111838H3602.29930111921ZM3633.4036662051944 1080.4471836271746 3617.8514836622026 1054.094874318216V792.2998015111838H3633.4036662051944ZM3410.489049755642 964.4538221606925 3426.0412322986344 990.1581238636932V1150.0H3410.489049755642ZM3379.3846846696583 913.4772238253298 3394.93686721265 939.6135305989692V1150.0H3379.3846846696583ZM3348.280319583674 861.8526178840091 3363.8325021266664 888.2049271929678V1150.0H3348.280319583674ZM3353.680382966658 792.2998015111838H3371.8245959334818L3591.7151768885633 1150.0H3573.570963921739ZM3390.4008139709445 792.2998015111838H3408.7610294730875L3628.43560789285 1150.0H3609.8593898553872ZM3426.9052424399115 792.2998015111838H3445.0494554067354L3648.9558487481863 1124.727703367638V792.2998015111838H3664.5080312911787V1150.0Q3664.5080312911787 1150.0 3646.147815789035 1150.0ZM3332.728137040682 817.5720981435458V1150.0H3317.1759544976903V792.2998015111838Q3317.1759544976903 792.2998015111838 3335.752172535153 792.2998015111838L3554.994745884276 1150.0H3537.066535452772ZM4004.0948743182166 963.1578069487765H4019.6470568612085V1150.0H4004.0948743182166ZM4066.3036044901846 963.1578069487765H4081.8557870331765V1150.0H4066.3036044901846ZM4035.1992394042004 963.1578069487765H4050.7514219471923V1150.0H4035.1992394042004ZM3988.5426917752243 963.1578069487765V1150.0Q3947.502210064551 1165.552182542992 3903.437692859407 1165.552182542992Q3865.205244107885 1165.552182542992 3830.212833386153 1151.5120177472354Q3795.220422664421 1137.4718529514787 3768.652110820143 1112.5235601220957Q3742.083798975865 1087.5752672927126 3726.2076126298944 1050.7468350207664Q3710.331426283923 1013.91840274882 3710.331426283923 971.149900755592Q3710.331426283923 931.6214367921539 3725.775607559255 895.6570146614848Q3741.2197888345877 859.6925925308158 3767.248094340567 833.6642870248361Q3793.276399846547 807.6359815188564 3829.240821977216 792.1918002435241Q3865.205244107885 776.7476189681918 3904.7337080713232 776.7476189681918Q3953.982286124131 776.7476189681918 3996.3187830467205 799.6438877120411Q4038.65527996931 822.5401564558904 4065.439594348907 861.8526178840091L4052.4794422297473 870.2767167614631Q4027.855153203343 834.2042933631344 3988.8666955782037 813.252047437159Q3949.878237953064 792.2998015111838 3904.7337080713232 792.2998015111838Q3868.445282137675 792.2998015111838 3835.2888929661576 806.4479675746002Q3802.13250379464 820.5961336380165 3778.156222374194 844.5724150584624Q3754.1799409537475 868.5486964789085 3740.0317748903312 901.7050856504261Q3725.883608826915 934.8614748219438 3725.883608826915 971.149900755592Q3725.883608826915 1010.2463596483913 3740.46377996097 1044.1587576935267Q3755.043951095025 1078.071155738662 3779.34423631845 1100.9674244825114Q3803.644521541875 1123.8636932263607 3835.8288993044557 1136.9318466131804Q3868.0132770670366 1150.0 3902.789685253449 1150.0Q3939.2941137224166 1150.0 3972.9905092322324 1138.5518656280753V1123.6476906910414Q3940.806131469652 1134.447817457008 3905.381715677281 1134.447817457008Q3879.67741397428 1134.447817457008 3855.3771287508553 1127.2117325238103Q3831.0768435274304 1119.9756475906127 3810.448601404434 1105.8274815271961Q3789.8203592814375 1091.6793154637799 3774.376178006105 1072.1310860173803Q3758.931996730773 1052.5828565709805 3750.18389405034 1026.5545510650009Q3741.435791369907 1000.5262455590213 3741.435791369907 971.149900755592Q3741.435791369907 926.8693810151285 3763.3600487048193 889.2849398695645Q3785.2843060397317 851.7004987240005 3822.8687471852954 829.7762413890881Q3860.4531883308596 807.8519840541758 3904.7337080713232 807.8519840541758Q3946.2061948526352 807.8519840541758 3981.846613180325 827.1842109652562Q4017.487031508015 846.5164378763365 4039.9512951812258 879.5648257801945L4026.991143062066 887.9889246576486Q4006.6869047420487 858.1805747835805 3974.3945257118085 840.7923706903741Q3942.102146681568 823.4041665971678 3904.7337080713232 823.4041665971678Q3874.7093556619357 823.4041665971678 3847.2770336763806 835.0683035044118Q3819.844711690825 846.7324404116558 3800.080479709106 866.4966723933749Q3780.3162477273872 886.2609043750938 3768.652110820143 913.6932263606492Q3756.987973912899 941.1255483462046 3756.987973912899 971.149900755592Q3756.987973912899 998.1502176705086 3764.8720664520547 1021.8024952879755Q3772.75615899121 1045.4547729054425 3786.6883225193073 1063.0589795339683Q3800.6204860474045 1080.663186162494 3819.196704084867 1093.299334478675Q3837.77292212233 1105.935482794856 3859.697179457242 1112.4155588544359Q3881.6214367921543 1118.895634914016 3904.7337080713232 1118.895634914016Q3940.5901289343324 1118.895634914016 3972.9905092322324 1106.7994929361332V1091.2473103931413Q3941.022134004971 1103.5594549063433 3906.2457258185586 1103.5594549063433Q3879.8934165096 1103.5594549063433 3855.917135089154 1094.5953496905909Q3831.940853668708 1085.6312444748387 3813.2566343635854 1069.2150517905693Q3794.572415058463 1052.7988591063 3783.5562857571767 1027.3105599386186Q3772.540156455891 1001.8222607709372 3772.540156455891 971.149900755592Q3772.540156455891 935.2934798925826 3790.2523643520763 904.8371224125565Q3807.964572248262 874.3807649325305 3838.420929728288 856.6685570363452Q3868.8772872083136 838.9563491401598 3904.7337080713232 838.9563491401598Q3938.21410104582 838.9563491401598 3967.050439510951 854.5085316831518Q3995.8867779760817 870.0607142261438 4014.0309909429056 896.8450286057412L4001.070838823746 905.2691274831952Q3985.086651210115 881.9408536687072 3959.7063533100936 868.2246926759295Q3934.3260554100716 854.5085316831519 3904.7337080713232 854.5085316831519Q3872.981335379381 854.5085316831519 3846.1970209997835 870.1687154938036Q3819.4127066201863 885.8288993044551 3803.7525228095346 912.6132136840524Q3788.092338998883 939.3975280636498 3788.092338998883 971.149900755592Q3788.092338998883 993.1821593581639 3794.3564125231437 1012.1903824662652Q3800.6204860474045 1031.1986055743666 3811.6366153486906 1045.022767834804Q3822.6527446499763 1058.8469300952413 3837.448918319351 1068.5670441846114Q3852.245091988725 1078.2871582739813 3869.3092922789524 1083.1472153186664Q3886.3734925691797 1088.0072723633514 3904.7337080713232 1088.0072723633514Q3941.2381365402903 1088.0072723633514 3972.9905092322324 1073.535102496956V1058.630927559922Q3942.318149216887 1072.23908728504 3906.677730889197 1072.23908728504Q3886.1574900338605 1072.23908728504 3868.013277067036 1065.9750137607793Q3849.869064100212 1059.7109402365186 3835.2888929661576 1047.6147982586358Q3820.7087218321026 1035.5186562807532 3812.1766216869887 1015.7544242990342Q3803.644521541875 995.9901923173152 3803.644521541875 971.149900755592Q3803.644521541875 950.6296599002552 3811.63661534869 931.9454405951328Q3819.6287091555055 913.2612212900106 3833.2368688806237 899.6530615648926Q3846.845028605742 886.0449018397745 3865.529247910864 878.0528080329591Q3884.2134672159864 870.0607142261438 3904.7337080713232 870.0607142261438Q3930.4380097743237 870.0607142261438 3952.4702683768955 882.0488549363668Q3974.502526979468 894.0369956465898 3988.326689239905 914.5572365019266L3975.5825396560645 922.9813353793805Q3963.9184027488204 905.7011325538339 3945.2341834436984 895.6570146614849Q3926.549964138576 885.6128967691359 3904.7337080713232 885.6128967691359Q3869.3092922789524 885.6128967691359 3844.25299818191 910.6691908661785Q3819.196704084867 935.7254849632212 3819.196704084867 971.149900755592Q3819.196704084867 992.9661568228446 3826.3247877504054 1009.7063533100929Q3833.4528714159433 1026.4465497973413 3845.8730171968045 1036.4906676896903Q3858.2931629776663 1046.5347855820391 3873.521341717679 1051.6108451620435Q3888.7495204576926 1056.686904742048 3906.2457258185586 1056.686904742048Q3942.102146681568 1056.686904742048 3972.9905092322324 1041.782729805014V963.1578069487765Z" fill="#3CF2FF" stroke="#3CF2FF" stroke-width="0" stroke-linejoin="round"/><path d="M970.2103387083145 4750.0H884.5230504490247V4406.352029253828H755.3929062540811V4320.365135091533H1099.0408770002534V4406.352029253828H970.2103387083145ZM1263.6167041814228 4750.0H1177.6298100191286V4320.365135091533H1263.6167041814228V4492.338923416122H1435.2908866030068V4320.365135091533H1521.277780765301V4750.0H1435.2908866030068V4578.325817578416H1263.6167041814228ZM1928.534389380123 4750.0H1634.0217867266902V4320.365135091533H1928.534389380123V4406.352029253828H1720.0086808889844V4492.338923416122H1861.1230612041084V4578.325817578416H1720.0086808889844V4664.013105837706H1928.534389380123ZM2406.8897834387076 4750.0H2321.202495179418V4406.352029253828H2192.0723509844743V4320.365135091533H2535.720321730647V4406.352029253828H2406.8897834387076ZM2700.2961489118165 4406.352029253828V4578.325817578416H2786.2830430741105Q2803.9597913513767 4578.325817578416 2819.5392983076113 4571.5846847608145Q2835.118805263846 4564.843551943213 2846.8034354810216 4553.158921726037Q2858.4880656981973 4541.474291508862 2865.229198515799 4525.744981601125Q2871.9703313334003 4510.015671693388 2871.9703313334003 4492.338923416122Q2871.9703313334003 4474.662175138856 2865.229198515799 4458.93286523112Q2858.4880656981973 4443.203555323383 2846.8034354810216 4431.518925106207Q2835.118805263846 4419.83429488903 2819.5392983076113 4413.093162071429Q2803.9597913513767 4406.352029253828 2786.2830430741105 4406.352029253828ZM2700.2961489118165 4750.0H2614.309254749522V4320.365135091533H2786.2830430741105Q2809.9519094114667 4320.365135091533 2831.823140330796 4326.507056103126Q2853.694371250125 4332.648977114718 2872.7193460909116 4343.884198477387Q2891.744320931698 4355.119419840056 2907.473630839435 4370.848729747793Q2923.2029407471714 4386.57803965553 2934.4381621098405 4405.752817447819Q2945.6733834725096 4424.927595240108 2951.815304484102 4446.798826159436Q2957.9572254956947 4468.670057078765 2957.9572254956947 4492.338923416122Q2957.9572254956947 4514.509760238456 2952.4145162901114 4535.482173448771Q2946.8718070845275 4556.454586659087 2936.535403430872 4575.329758548371Q2926.1989997772166 4594.204930437655 2911.218704626991 4610.084043296894Q2896.238409476766 4625.963156156133 2877.662843490486 4637.647786373309L2925.300182068203 4750.0H2833.9203816518275L2796.469643776264 4663.413894031697L2700.2961489118165 4664.013105837706ZM3341.844573676165 4750.0H3047.331971022732V4320.365135091533H3341.844573676165V4406.352029253828H3133.3188651850264V4492.338923416122H3274.4332455001504V4578.325817578416H3133.3188651850264V4664.013105837706H3341.844573676165ZM3729.626798595694 4750.0H3435.1141959422607V4320.365135091533H3729.626798595694V4406.352029253828H3521.101090104555V4492.338923416122H3662.215470419679V4578.325817578416H3521.101090104555V4664.013105837706H3729.626798595694Z" fill="#FFE45C" stroke="#FFE45C" stroke-width="0" stroke-linejoin="round"/></svg>