<svg xmlns="http://www.w3.org/2000/svg" width="4500" height="5500" viewBox="0 0 4500 5500"><path d="M558.5381990389303 1757.3511773490882C674.1869210947838 1757.3511773490882 732.6728880841284 1643.407928438223 737.9657357754718 1550.0479761048045H629.4623581029321C624.1695104115886 1596.727952271514 600.3516958005432 1627.9704560051382 561.184622884602 1627.9704560051382C508.7854307403022 1627.9704560051382 478.6161988996448 1576.879773428976 478.6161988996448 1476.536202613924C478.6161988996448 1380.970897075779 507.99150358660074 1324.366831487801 561.7139076537363 1324.366831487801C601.4102653388119 1324.366831487801 624.698795180723 1355.6093352214252 628.9330733337977 1402.2893113881344H737.4364510063375C727.6446827773523 1269.9681191045493 656.7205237133505 1194.986110143851 558.5381990389303 1194.986110143851C452.41660282749496 1194.986110143851 368.5249669197019 1293.491886621631 368.5249669197019 1476.536202613924C368.5249669197019 1658.4778420038535 450.2994637509576 1757.3511773490882 558.5381990389303 1757.3511773490882ZM965.2935441186712 1757.3511773490882C1072.4737098683754 1757.3511773490882 1156.8946305453028 1659.2129597387623 1156.8946305453028 1476.536202613924C1156.8946305453028 1293.491886621631 1072.4737098683754 1194.986110143851 965.2935441186712 1194.986110143851C857.5840935998328 1194.986110143851 773.6924576920399 1293.491886621631 773.6924576920399 1476.536202613924C773.6924576920399 1658.1102831363992 857.5840935998328 1757.3511773490882 965.2935441186712 1757.3511773490882ZM965.2935441186712 1627.9704560051382C912.3650672052372 1627.9704560051382 883.7836896719828 1574.6744202242496 883.7836896719828 1476.536202613924C883.7836896719828 1378.030426136144 912.3650672052372 1324.366831487801 965.2935441186712 1324.366831487801C1018.4866634166725 1324.366831487801 1046.8033985653597 1378.030426136144 1046.8033985653597 1476.536202613924C1046.8033985653597 1574.6744202242496 1018.4866634166725 1627.9704560051382 965.2935441186712 1627.9704560051382ZM1200.825266383453 1750.0H1307.74078974859V1562.5449775982543H1461.2333727975488V1445.661257747754H1307.74078974859V1322.1614782830745H1478.1704854098477V1202.3372874929391H1200.825266383453ZM1517.337558325789 1750.0H1624.2530816909257V1562.5449775982543H1777.7456647398847V1445.661257747754H1624.2530816909257V1322.1614782830745H1794.6827773521836V1202.3372874929391H1517.337558325789ZM1833.8498502681248 1750.0H2117.017201754997V1630.1758092098646H1940.7653736332618V1531.6700327320843H2103.2557977575043V1414.786312881584H1940.7653736332618V1322.1614782830745H2118.075771293266V1202.3372874929391H1833.8498502681248ZM2165.976042899924 1750.0H2449.143394386796V1630.1758092098646H2272.8915662650606V1531.6700327320843H2435.381990389303V1414.786312881584H2272.8915662650606V1322.1614782830745H2450.201963925065V1202.3372874929391H2165.976042899924ZM2606.0763284351283 1750.0H2712.991851800265V1562.5449775982543H2866.484434849224V1445.661257747754H2712.991851800265V1322.1614782830745H2883.4215474615226V1202.3372874929391H2606.0763284351283ZM3029.5041437426007 1202.3372874929391H2922.588620377464V1750.0H3029.5041437426007ZM3080.3154815794974 1750.0H3187.231004944634V1569.1610372124335H3224.280938784038L3293.6172435406365 1750.0H3410.0598927501915L3329.6086078417716 1545.6372696953517C3371.6867469879517 1517.7027957688172 3396.827773521833 1464.4067599879286 3396.827773521833 1388.322074424867C3396.827773521833 1272.1734723092757 3338.0771641479214 1202.3372874929391 3250.2158924716205 1202.3372874929391H3080.3154815794974ZM3187.231004944634 1453.747552831751V1321.4263605481656H3224.8102235531724C3262.6540845462778 1321.4263605481656 3285.148687234487 1341.6420982581578 3285.148687234487 1388.322074424867C3285.148687234487 1435.3696094590307 3262.6540845462778 1453.747552831751 3224.8102235531724 1453.747552831751ZM3602.7195487150916 1756.6160596141792C3702.489727696915 1756.6160596141792 3762.5635489936626 1696.7039642191114 3762.5635489936626 1588.2740983200624C3762.5635489936626 1505.2057942753675 3726.3075423079604 1446.3963754826627 3639.2401977853615 1420.6672547608546L3606.9538268681663 1411.1107242070402C3569.6392506441953 1400.083958183408 3554.0253499547325 1385.0140446177775 3554.0253499547325 1358.9173650285147C3554.0253499547325 1334.6584797765242 3568.580681105927 1317.0156541387128 3601.6609791768233 1317.0156541387128C3636.3291315551223 1317.0156541387128 3652.736959398287 1337.966509583614 3654.589456090257 1373.619719726691H3757.270701302319C3756.7414165331847 1266.2925304300052 3697.1968800055715 1194.986110143851 3601.6609791768233 1194.986110143851C3507.977575040045 1194.986110143851 3442.3462636673867 1265.1898538276419 3442.3462636673867 1369.2090133172383C3442.3462636673867 1454.8502294341142 3484.9536875827007 1503.000441070641 3554.554634723867 1523.5837376480874L3594.2509924089422 1535.3456214066284C3637.9169858625255 1548.2101817675325 3653.5308865519883 1563.6476542006176 3653.5308865519883 1588.2740983200624C3653.5308865519883 1615.4734545116885 3635.2705620168535 1634.5865156193174 3601.131694407689 1634.5865156193174C3559.84748241521 1634.5865156193174 3535.765025419598 1607.754718295146 3533.9125287276274 1557.3991534538927H3432.289853053834C3432.8191378229685 1694.8661698818396 3499.7736611184623 1756.6160596141792 3602.7195487150916 1756.6160596141792ZM3792.7327808343202 1322.1614782830745H3910.498641966711V1750.0H4017.414165331848V1322.1614782830745H4135.180026464239V1202.3372874929391H3792.7327808343202Z" fill="#F5E6C8" stroke="#F5E6C8" stroke-width="18" stroke-linejoin="round"/><rect x="350" y="1930" width="3800" height="64" rx="32" fill="#F2B134"/><rect x="350" y="2034" width="3800" height="64" rx="32" fill="#D9552B"/><rect x="350" y="2138" width="3800" height="64" rx="32" fill="#2A9D8F"/><path d="M365.06548672566373 3085.0737463126843H484.78230088495576V3520.0H593.4690265486726V3085.0737463126843H713.1858407079646V2963.2645034414945H365.06548672566373ZM754.0778761061947 3520.0H862.7646017699116V3296.558505408063H1006.9628318584071V3520.0H1115.6495575221238V2963.2645034414945H1006.9628318584071V3174.749262536873H862.7646017699116V2963.2645034414945H754.0778761061947ZM1167.3026548672567 3520.0H1455.1610619469027V3398.19075712881H1275.9893805309734V3298.0530973451328H1441.1716814159292V3179.2330383480826H1275.9893805309734V3085.0737463126843H1456.237168141593V2963.2645034414945H1167.3026548672567ZM1504.9309734513274 3520.0H1616.846017699115V3316.7354965585055C1616.846017699115 3280.117994100295 1613.8867256637168 3218.8397246804325 1610.6584070796462 3154.945919370698C1630.0283185840708 3217.3451327433627 1644.824778761062 3259.9410029498526 1669.8442477876106 3316.7354965585055L1758.89203539823 3520.0H1877.2637168141594V2963.2645034414945H1765.3486725663718V3167.276302851524C1765.3486725663718 3208.377581120944 1768.846017699115 3276.3815142576204 1771.5362831858406 3333.1760078662733C1755.1256637168142 3270.4031465093412 1738.9840707964602 3227.8072763028513 1718.8070796460177 3181.848574237955L1623.3026548672567 2963.2645034414945H1504.9309734513274ZM2038.679646017699 3520.0H2147.366371681416V3354.8475909537856H2207.6283185840707C2299.097345132743 3354.8475909537856 2360.4353982300886 3280.117994100295 2360.4353982300886 3160.55063913471C2360.4353982300886 3041.7305801376597 2300.7115044247785 2963.2645034414945 2211.3946902654866 2963.2645034414945H2038.679646017699ZM2147.366371681416 3237.522123893805V3084.3264503441496H2185.5681415929203C2224.0389380530974 3084.3264503441496 2246.9061946902652 3112.3500491642085 2246.9061946902652 3160.55063913471C2246.9061946902652 3207.630285152409 2224.0389380530974 3237.522123893805 2185.5681415929203 3237.522123893805ZM2400.2513274336284 3520.0H2688.1097345132744V3398.19075712881H2508.9380530973453V3298.0530973451328H2674.120353982301V3179.2330383480826H2508.9380530973453V3085.0737463126843H2689.185840707965V2963.2645034414945H2400.2513274336284ZM2925.6601769911504 3527.472959685349C3034.61592920354 3527.472959685349 3120.4353982300886 3427.708947885939 3120.4353982300886 3242.0058997050146C3120.4353982300886 3055.929203539823 3034.61592920354 2955.7915437561455 2925.6601769911504 2955.7915437561455C2816.166371681416 2955.7915437561455 2730.8849557522126 3055.929203539823 2730.8849557522126 3242.0058997050146C2730.8849557522126 3426.588003933137 2816.166371681416 3527.472959685349 2925.6601769911504 3527.472959685349ZM2925.6601769911504 3395.9488692232053C2871.854867256637 3395.9488692232053 2842.8 3341.7699115044247 2842.8 3242.0058997050146C2842.8 3141.868239921337 2871.854867256637 3087.3156342182892 2925.6601769911504 3087.3156342182892C2979.734513274336 3087.3156342182892 3008.520353982301 3141.868239921337 3008.520353982301 3242.0058997050146C3008.520353982301 3341.7699115044247 2979.734513274336 3395.9488692232053 2925.6601769911504 3395.9488692232053ZM3165.0938053097343 3520.0H3273.7805309734513V3354.8475909537856H3334.042477876106C3425.5115044247786 3354.8475909537856 3486.8495575221236 3280.117994100295 3486.8495575221236 3160.55063913471C3486.8495575221236 3041.7305801376597 3427.125663716814 2963.2645034414945 3337.808849557522 2963.2645034414945H3165.0938053097343ZM3273.7805309734513 3237.522123893805V3084.3264503441496H3311.9823008849557C3350.4530973451324 3084.3264503441496 3373.3203539823007 3112.3500491642085 3373.3203539823007 3160.55063913471C3373.3203539823007 3207.630285152409 3350.4530973451324 3237.522123893805 3311.9823008849557 3237.522123893805ZM3526.6654867256634 3520.0H3797.3061946902653V3398.19075712881H3635.3522123893804V2963.2645034414945H3526.6654867256634ZM3838.198230088495 3520.0H4126.056637168142V3398.19075712881H3946.884955752212V3298.0530973451328H4112.067256637168V3179.2330383480826H3946.884955752212V3085.0737463126843H4127.132743362831V2963.2645034414945H3838.198230088495Z" fill="#F5E6C8" stroke="#F5E6C8" stroke-width="18" stroke-linejoin="round"/><rect x="350" y="3700" width="3800" height="64" rx="32" fill="#F2B134"/><rect x="350" y="3804" width="3800" height="64" rx="32" fill="#D9552B"/><rect x="350" y="3908" width="3800" height="64" rx="32" fill="#2A9D8F"/><path d="M509.249174779243 4780.0H549.3289321559625V4721.764455093656C549.3289321559625 4711.273492959792 548.2691308791743 4693.717188980673 547.1129840317689 4675.411530563421C554.0498651162011 4693.288986444597 559.3488715001424 4705.492758722765 568.3090095675341 4721.764455093656L600.1993934417989 4780.0H642.5914445133292V4620.494555311666H602.5116871366097V4678.944201486049C602.5116871366097 4690.71977122814 603.7641795546322 4710.202986619602 604.7276352608033 4726.474682990492C598.8505554531594 4708.490176475298 593.0698212161325 4696.28640419713 585.8439034198489 4683.119176212791L551.6412258507733 4620.494555311666H509.249174779243ZM769.9491183682132 4782.14101268038C808.9690744681445 4782.14101268038 839.703311495004 4753.558493397303 839.703311495004 4700.354328289852C839.703311495004 4647.043112548382 808.9690744681445 4618.353542631286 769.9491183682132 4618.353542631286C730.7364711270477 4618.353542631286 700.1949252414224 4647.043112548382 700.1949252414224 4700.354328289852C700.1949252414224 4753.237341495246 730.7364711270477 4782.14101268038 769.9491183682132 4782.14101268038ZM769.9491183682132 4744.4591895056865C750.6800042447903 4744.4591895056865 740.274682618142 4728.93684757293 740.274682618142 4700.354328289852C740.274682618142 4671.664758372756 750.6800042447903 4656.035365805979 769.9491183682132 4656.035365805979C789.3145780622532 4656.035365805979 799.6235541182845 4671.664758372756 799.6235541182845 4700.354328289852C799.6235541182845 4728.93684757293 789.3145780622532 4744.4591895056865 769.9491183682132 4744.4591895056865ZM974.3720782158475 4655.3930620018655H1017.2458571404635V4780.0H1056.1694676697775V4655.3930620018655H1099.0432465943936V4620.494555311666H974.3720782158475ZM1150.4806108029914 4780.0H1194.0288087219271L1201.9291455125306 4749.383518670562H1246.055416855169L1254.3411359282406 4780.0H1298.467407270879L1250.198276391705 4620.494555311666H1197.0155214110578ZM1210.2148645856023 4717.054227196819C1215.2248342576922 4697.571011805358 1219.271348223611 4676.8031888056685 1223.2215166189128 4655.928315171961C1227.5570672966828 4676.8031888056685 1232.1816546863045 4697.571011805358 1237.3843154996287 4717.054227196819ZM1353.7585943041615 4780.0H1450.6822383449785V4745.1014933098H1392.6822048334757V4620.494555311666H1353.7585943041615ZM1506.9368810844321 4780.0H1545.8604916137463V4740.177164144926L1563.5880766072953 4717.589480366913L1597.2126807526681 4780.0H1643.0731723664146L1590.1794540976189 4689.114011717856L1640.3754963891354 4620.494555311666H1594.2259680635377L1565.7076791608717 4661.494948140949C1556.1694676697775 4675.304479929402 1550.1960422915163 4685.046087625133 1545.1860726194263 4695.322948490959L1545.8604916137463 4654.750758197752V4620.494555311666H1506.9368810844321ZM1737.2879699290113 4620.494555311666H1698.3643593996972V4780.0H1737.2879699290113ZM1797.3964354931495 4780.0H1837.476192869869V4721.764455093656C1837.476192869869 4711.273492959792 1836.4163915930808 4693.717188980673 1835.2602447456754 4675.411530563421C1842.1971258301076 4693.288986444597 1847.4961322140489 4705.492758722765 1856.4562702814405 4721.764455093656L1888.3466541557054 4780.0H1930.7387052272356V4620.494555311666H1890.6589478505161V4678.944201486049C1890.6589478505161 4690.71977122814 1891.9114402685386 4710.202986619602 1892.8748959747097 4726.474682990492C1886.9978161670658 4708.490176475298 1881.2170819300388 4696.28640419713 1873.9911641337553 4683.119176212791L1839.7884865646797 4620.494555311666H1797.3964354931495ZM2058.674452505822 4782.14101268038C2096.249225046497 4782.14101268038 2123.225984819289 4756.662961783854 2123.225984819289 4712.986303104096V4690.933872496179H2059.6379082119934V4721.764455093656H2085.6512122786144C2085.265829996146 4735.681037516128 2076.402037499371 4744.4591895056865 2059.0598347882906 4744.4591895056865C2038.8272649586968 4744.4591895056865 2028.4219433320484 4727.973391866758 2028.4219433320484 4699.926125753776C2028.4219433320484 4672.30706217687 2039.6943750942507 4656.035365805979 2059.252525929525 4656.035365805979C2071.4884133978985 4656.035365805979 2079.7741324709705 4662.244302579083 2082.182771736398 4673.163467249022H2121.491764548181C2118.50505185905 4641.155327677337 2092.2990566511953 4618.353542631286 2058.4817613645882 4618.353542631286C2019.7508419765081 4618.353542631286 1988.342185955329 4648.006568254554 1988.342185955329 4700.56842955789C1988.342185955329 4750.989278180847 2016.7641292873775 4782.14101268038 2058.674452505822 4782.14101268038ZM2262.230302217902 4780.0H2329.8648927911167C2360.9845121004446 4780.0 2380.1572806532504 4761.052037778634 2380.1572806532504 4734.824632443975C2380.1572806532504 4712.343999299982 2365.320062778215 4697.678062439377 2346.8217132197287 4696.928708001244V4695.21589785694C2363.4894969364896 4691.683226934312 2374.5692375574577 4677.980745779878 2374.5692375574577 4660.31739116674C2374.5692375574577 4636.123947878443 2357.227034846377 4620.494555311666 2324.4695408365583 4620.494555311666H2262.230302217902ZM2301.1539127472165 4745.529695845877V4711.701695495868H2320.0376445881707C2331.791804203459 4711.701695495868 2339.1140675703596 4718.01768290299 2339.1140675703596 4729.257999474987C2339.1140675703596 4739.856012242869 2332.4662231977786 4745.529695845877 2319.4595711644683 4745.529695845877ZM2301.1539127472165 4684.939036991114V4654.536656929713H2317.72535089336C2327.359907955072 4654.536656929713 2334.489480180738 4659.996239264683 2334.489480180738 4669.737846960414C2334.489480180738 4679.586505290163 2327.359907955072 4684.939036991114 2317.1472774696576 4684.939036991114ZM2435.641158827767 4780.0H2538.7309193880797V4745.1014933098H2474.5647693570813V4716.411923392705H2533.7209497159893V4682.369821774658H2474.5647693570813V4655.3930620018655H2539.1163016705477V4620.494555311666H2435.641158827767ZM2598.164965957898 4780.0H2637.0885764872123V4725.404176650301H2692.9690074451387V4691.362075032255H2637.0885764872123V4655.3930620018655H2699.1351239646337V4620.494555311666H2598.164965957898ZM2822.253592712365 4782.14101268038C2861.273548812296 4782.14101268038 2892.0077858391555 4753.558493397303 2892.0077858391555 4700.354328289852C2892.0077858391555 4647.043112548382 2861.273548812296 4618.353542631286 2822.253592712365 4618.353542631286C2783.0409454711994 4618.353542631286 2752.499399585574 4647.043112548382 2752.499399585574 4700.354328289852C2752.499399585574 4753.237341495246 2783.0409454711994 4782.14101268038 2822.253592712365 4782.14101268038ZM2822.253592712365 4744.4591895056865C2802.984478588942 4744.4591895056865 2792.5791569622934 4728.93684757293 2792.5791569622934 4700.354328289852C2792.5791569622934 4671.664758372756 2802.984478588942 4656.035365805979 2822.253592712365 4656.035365805979C2841.619052406405 4656.035365805979 2851.928028462436 4671.664758372756 2851.928028462436 4700.354328289852C2851.928028462436 4728.93684757293 2841.619052406405 4744.4591895056865 2822.253592712365 4744.4591895056865ZM2949.6112665672485 4780.0H2988.534877096563V4727.331088062644H3002.023256982959L3027.265796484643 4780.0H3069.6578475561732L3040.36879408857 4720.479847485427C3055.6877398166916 4712.343999299982 3064.8405690253176 4696.821657367224 3064.8405690253176 4674.662176125288C3064.8405690253176 4640.83417577528 3043.451852348318 4620.494555311666 3011.465122903436 4620.494555311666H2949.6112665672485ZM2988.534877096563 4693.717188980673V4655.178960733828H3002.2159481241933C3015.9933647224407 4655.178960733828 3024.1827382248953 4661.066745604873 3024.1827382248953 4674.662176125288C3024.1827382248953 4688.364657279722 3015.9933647224407 4693.717188980673 3002.2159481241933 4693.717188980673ZM3123.0221231771134 4780.0H3226.111883737426V4745.1014933098H3161.9457337064277V4716.411923392705H3221.101914065336V4682.369821774658H3161.9457337064277V4655.3930620018655H3226.497266019894V4620.494555311666H3123.0221231771134ZM3421.1893232352 4782.5692152164565C3458.7640957758745 4782.5692152164565 3483.62125299509 4750.025822474676 3483.62125299509 4698.42741687751C3483.62125299509 4640.405973239203 3454.9102729511897 4617.92534009521 3421.382014376434 4617.92534009521C3387.5647190898267 4617.92534009521 3363.9600542886337 4640.941226409298 3363.9600542886337 4675.304479929402C3363.9600542886337 4704.529303016594 3381.3986025703316 4725.832379186378 3407.5082522075695 4725.832379186378C3423.790653641862 4725.832379186378 3438.6278715168974 4717.054227196819 3444.119569042073 4702.495340970232H3444.89033360701C3444.89033360701 4728.187493134797 3437.568070240109 4745.743797113915 3421.1893232352 4745.743797113915C3412.999949732745 4745.743797113915 3405.7740319364616 4741.354721119135 3404.039811665353 4732.255417227519H3365.694274559742C3368.1029138251697 4759.553328902368 3389.4916305021693 4782.5692152164565 3421.1893232352 4782.5692152164565ZM3421.7673966589023 4696.500505465167C3410.2059281848487 4696.500505465167 3401.7275179705425 4686.972999037475 3401.7275179705425 4673.805771053137C3401.7275179705425 4660.745593702816 3410.3022737554656 4651.111036641105 3421.7673966589023 4651.111036641105C3433.232519562339 4651.111036641105 3441.614584206028 4660.745593702816 3441.614584206028 4673.805771053137C3441.614584206028 4686.865948403456 3433.232519562339 4696.500505465167 3421.7673966589023 4696.500505465167ZM3617.326564009762 4780.0H3660.874761928698L3668.7750987193012 4749.383518670562H3712.9013700619394L3721.1870891350113 4780.0H3765.31336047765L3717.0442295984753 4620.494555311666H3663.861474617828ZM3677.060817792373 4717.054227196819C3682.070787464463 4697.571011805358 3686.1173014303818 4676.8031888056685 3690.0674698256835 4655.928315171961C3694.4030205034537 4676.8031888056685 3699.027607893075 4697.571011805358 3704.2302687063993 4717.054227196819ZM3820.604547510932 4780.0H3859.913540322715V4718.338834805047C3859.913540322715 4706.563265062955 3858.950084616544 4680.121758460258 3858.5647023340753 4657.4270240482265C3863.285635294314 4680.871112898391 3869.162715101958 4705.813910624822 3872.631155644174 4718.338834805047L3889.587976072786 4780.0H3921.9600878001365L3938.6278715168974 4718.338834805047C3942.1926576297305 4705.385708088746 3948.2624285786087 4679.051252120068 3952.88701596823 4654.750758197752C3952.501633685762 4677.980745779878 3951.441832408974 4706.135062526879 3951.441832408974 4718.338834805047V4780.0H3990.7508252207563V4620.494555311666H3929.1860055964203L3916.468390274961 4670.380150764528C3913.4816775858308 4682.048669872601 3909.1461269080605 4706.563265062955 3905.7740319364616 4727.438138696663C3902.4982825354796 4706.563265062955 3897.970040716475 4682.048669872601 3894.9833280273447 4670.380150764528L3882.0730215646513 4620.494555311666H3820.604547510932Z" fill="#F2B134" stroke="#F2B134" stroke-width="6" stroke-linejoin="round"/></svg>