<svg xmlns="http://www.w3.org/2000/svg" width="4500" height="5500" viewBox="0 0 4500 5500"><path d="M429.62468723936615 900.0H554.2952460383653V763.603002502085H623.419516263553C728.3402835696413 763.603002502085 798.698915763136 701.884904086739 798.698915763136 603.1359466221852C798.698915763136 505.0041701417848 730.1918265221018 440.20016680567136 627.7397831526272 440.20016680567136H429.62468723936615ZM554.2952460383653 666.7055879899916V540.1834862385322H598.115095913261C642.2435362802336 540.1834862385322 668.4737281067556 563.3277731442869 668.4737281067556 603.1359466221852C668.4737281067556 642.0183486238532 642.2435362802336 666.7055879899916 598.115095913261 666.7055879899916ZM828.9407839866556 900.0H968.4236864053378L993.7281067556297 811.743119266055H1135.0625521267723L1161.601334445371 900.0H1302.9357798165138L1148.3319432860717 440.20016680567136H977.9899916597165ZM1020.2668890742285 718.5487906588824C1036.3135946622185 662.3853211009174 1049.2743953294412 602.5187656380317 1061.926605504587 542.3436196830692C1075.81317764804 602.5187656380317 1090.6255212677231 662.3853211009174 1107.2894078398665 718.5487906588824ZM1346.7556296914095 900.0H1471.4261884904088V748.1734778982485H1514.628857381151L1595.4795663052544 900.0H1731.2593828190159L1637.4478732276898 728.4236864053378C1686.51376146789 704.9708090075062 1715.8298582151795 660.2251876563803 1715.8298582151795 596.346955796497C1715.8298582151795 498.8323603002502 1647.3227689741452 440.20016680567136 1544.8707256046705 440.20016680567136H1346.7556296914095ZM1471.4261884904088 651.2760633861551V540.1834862385322H1515.2460383653045C1559.3744787322769 540.1834862385322 1585.6046705587992 557.1559633027523 1585.6046705587992 596.346955796497C1585.6046705587992 635.8465387823186 1559.3744787322769 651.2760633861551 1515.2460383653045 651.2760633861551ZM1756.5638031693077 540.8006672226855H1893.886572143453V900.0H2018.557130942452V540.8006672226855H2155.879899916597V440.20016680567136H1756.5638031693077ZM2202.7856547122606 900.0H2327.4562135112596V748.1734778982485H2370.658882402002L2451.5095913261052 900.0H2587.2894078398667L2493.4778982485404 728.4236864053378C2542.543786488741 704.9708090075062 2571.8598832360303 660.2251876563803 2571.8598832360303 596.346955796497C2571.8598832360303 498.8323603002502 2503.352793994996 440.20016680567136 2400.9007506255216 440.20016680567136H2202.7856547122606ZM2327.4562135112596 651.2760633861551V540.1834862385322H2371.2760633861553C2415.4045037531278 540.1834862385322 2441.63469557965 557.1559633027523 2441.63469557965 596.346955796497C2441.63469557965 635.8465387823186 2415.4045037531278 651.2760633861551 2371.2760633861553 651.2760633861551ZM2749.608006672227 440.20016680567136H2624.937447873228V900.0H2749.608006672227ZM2985.9883236030023 900.0C3125.7798165137615 900.0 3214.345287739783 813.9032527105921 3214.345287739783 670.4086738949125C3214.345287739783 526.605504587156 3125.7798165137615 440.20016680567136 2984.136780650542 440.20016680567136H2808.857381150959V900.0ZM2933.527939949958 793.8448707256047V546.3552960800666H2977.347789824854C3049.557964970809 546.3552960800666 3089.0575479566305 574.1284403669724 3089.0575479566305 670.4086738949125C3089.0575479566305 766.3803169307756 3049.557964970809 793.8448707256047 2981.050875729775 793.8448707256047ZM3482.819015846539 906.1718098415346C3603.1693077564637 906.1718098415346 3689.5746455379485 832.7272727272727 3689.5746455379485 706.8223519599667V643.2527105921602H3485.904920767306V732.1267723102585H3569.2243536280234C3567.9899916597165 772.2435362802336 3539.599666388657 797.5479566305254 3484.0533778148456 797.5479566305254C3419.2493744787325 797.5479566305254 3385.9216013344453 750.0250208507089 3385.9216013344453 669.1743119266055C3385.9216013344453 589.557964970809 3422.026688907423 542.6522101751459 3484.670558798999 542.6522101751459C3523.861551292744 542.6522101751459 3550.400333611343 560.5504587155963 3558.115095913261 592.0266889074228H3684.020016680567C3674.4537114261884 499.7581317764804 3590.517097581318 434.0283569641368 3482.2018348623856 434.0283569641368C3358.1484570475395 434.0283569641368 3257.5479566305257 519.5079232693911 3257.5479566305257 671.025854879066C3257.5479566305257 816.371976647206 3348.5821517931613 906.1718098415346 3482.819015846539 906.1718098415346ZM3742.3436196830694 900.0H4072.535446205171V799.3994995829859H3867.0141784820685V716.697247706422H4056.488740617181V618.5654712260216H3867.0141784820685V540.8006672226855H4073.769808173478V440.20016680567136H3742.3436196830694Z" fill="#F4EAD5" /><path d="M835.3550746723561 1626.0347455044193C961.7494666260286 1626.0347455044193 1037.8543127095397 1571.3867723255105 1037.8543127095397 1472.4839987808596C1037.8543127095397 1396.7144163364828 991.9231941481256 1343.0722340749771 881.6214568729047 1319.6037793355683L840.7192928985066 1310.8869247180737C793.4471197805547 1300.8290155440413 773.6665650716245 1287.0832063395305 773.6665650716245 1263.2794879609874C773.6665650716245 1241.1520877781163 792.1060652240171 1225.0594330996646 834.0140201158183 1225.0594330996646C877.9335568424261 1225.0594330996646 898.7199024687595 1244.169460530326 901.0667479427004 1276.690033526364H1031.1490399268516C1030.4785126485826 1178.7930508991162 955.0441938433405 1113.7519049070406 834.0140201158183 1113.7519049070406C715.3306918622371 1113.7519049070406 632.1853093569034 1177.7872599817129 632.1853093569034 1272.666869856751C632.1853093569034 1350.7832977750686 686.1627552575435 1394.7028345016763 774.3370923498933 1413.4775982932033L824.6266382200549 1424.2060347455044C879.9451386772325 1435.9402621152087 899.7256933861628 1450.021334958854 899.7256933861628 1472.4839987808596C899.7256933861628 1497.293508076806 876.5925022858885 1514.7272173117951 833.3434928375495 1514.7272173117951C781.0423651325816 1514.7272173117951 750.5333739713502 1490.2529716549832 748.1865284974093 1444.321853093569H619.4452910697958C620.1158183480646 1569.7104541298384 704.9375190490704 1626.0347455044193 835.3550746723561 1626.0347455044193ZM1089.484913136239 1620.0H1224.9314233465407V1471.8134715025906H1300.0304785126486C1414.0201158183481 1471.8134715025906 1490.4602255409936 1404.7607436757087 1490.4602255409936 1297.4763791526973C1490.4602255409936 1190.862541907955 1416.0316976531544 1120.4571776897287 1304.7241694605302 1120.4571776897287H1089.484913136239ZM1224.9314233465407 1366.540688814386V1229.0825967692776H1272.5388601036268C1320.4815604998475 1229.0825967692776 1348.9789698262725 1254.2273697043584 1348.9789698262725 1297.4763791526973C1348.9789698262725 1339.719597683633 1320.4815604998475 1366.540688814386 1272.5388601036268 1366.540688814386ZM1774.0932642487046 1626.705272782688C1909.8750380981407 1626.705272782688 2016.8241389820178 1537.1898811338006 2016.8241389820178 1370.5638524839987C2016.8241389820178 1203.6025601950623 1909.8750380981407 1113.7519049070406 1774.0932642487046 1113.7519049070406C1637.6409631209997 1113.7519049070406 1531.3623895153917 1203.6025601950623 1531.3623895153917 1370.5638524839987C1531.3623895153917 1536.1840902163974 1637.6409631209997 1626.705272782688 1774.0932642487046 1626.705272782688ZM1774.0932642487046 1508.6924718073758C1707.0405364218225 1508.6924718073758 1670.8320633953062 1460.0792441328863 1670.8320633953062 1370.5638524839987C1670.8320633953062 1280.7131971959768 1707.0405364218225 1231.764705882353 1774.0932642487046 1231.764705882353C1841.481255714721 1231.764705882353 1877.354465102103 1280.7131971959768 1877.354465102103 1370.5638524839987C1877.354465102103 1460.0792441328863 1841.481255714721 1508.6924718073758 1774.0932642487046 1508.6924718073758ZM2059.0673575129535 1229.7531240475464H2208.259676927766V1620.0H2343.706187138068V1229.7531240475464H2492.8985065528805V1120.4571776897287H2059.0673575129535ZM2530.448034135934 1229.7531240475464H2679.6403535507466V1620.0H2815.0868637610483V1229.7531240475464H2964.279183175861V1120.4571776897287H2530.448034135934ZM3015.2392563242915 1620.0H3373.9713501981105V1510.7040536421823H3150.6857665345933V1420.8533983541604H3356.5376409631212V1314.2395611094178H3150.6857665345933V1229.7531240475464H3375.312404754648V1120.4571776897287H3015.2392563242915ZM3628.4364523011277 1620.0C3780.310880829016 1620.0 3876.5315452605914 1526.4614446814996 3876.5315452605914 1370.5638524839987C3876.5315452605914 1214.3309966473635 3780.310880829016 1120.4571776897287 3626.4248704663214 1120.4571776897287H3435.9951234379764V1620.0ZM3571.441633648278 1504.669308137763V1235.7878695519657H3619.0490704053645C3697.5007619628163 1235.7878695519657 3740.414507772021 1265.9615970740629 3740.414507772021 1370.5638524839987C3740.414507772021 1474.8308442548005 3697.5007619628163 1504.669308137763 3623.072234074977 1504.669308137763Z" fill="#E9C46A" /><path d="M2130 4380 L2170 3050 L2330 3050 L2370 4380 Z" fill="#8A5A3B"/><path d="M2300 3650 Q2700 3560 3150 3470" stroke="#8A5A3B" stroke-width="110" fill="none" stroke-linecap="round"/><circle cx="2250" cy="2500" r="700" fill="#6FA35A"/><circle cx="1750" cy="2850" r="520" fill="#6FA35A"/><circle cx="2750" cy="2850" r="520" fill="#6FA35A"/><circle cx="2250" cy="3000" r="560" fill="#6FA35A"/><circle cx="1900" cy="2350" r="160" fill="#4E8A45" opacity="0.6"/><circle cx="2600" cy="2300" r="140" fill="#4E8A45" opacity="0.6"/><circle cx="2250" cy="2900" r="180" fill="#4E8A45" opacity="0.6"/><circle cx="1700" cy="2950" r="120" fill="#4E8A45" opacity="0.6"/><circle cx="2800" cy="3000" r="130" fill="#4E8A45" opacity="0.6"/><path d="M1850 2480 q-15 -60 25 -90" stroke="#8A5A3B" stroke-width="22" fill="none" stroke-linecap="round"/><circle cx="1850" cy="2660" r="105" fill="#E9C46A"/><circle cx="1850" cy="2560" r="70" fill="#E9C46A"/><path d="M2350 2130 q-15 -60 25 -90" stroke="#8A5A3B" stroke-width="22" fill="none" stroke-linecap="round"/><circle cx="2350" cy="2310" r="105" fill="#E9C46A"/><circle cx="2350" cy="2210" r="70" fill="#E9C46A"/><path d="M2650 2580 q-15 -60 25 -90" stroke="#8A5A3B" stroke-width="22" fill="none" stroke-linecap="round"/><circle cx="2650" cy="2760" r="105" fill="#E9C46A"/><circle cx="2650" cy="2660" r="70" fill="#E9C46A"/><path d="M2100 3030 q-15 -60 25 -90" stroke="#8A5A3B" stroke-width="22" fill="none" stroke-linecap="round"/><circle cx="2100" cy="3210" r="105" fill="#E9C46A"/><circle cx="2100" cy="3110" r="70" fill="#E9C46A"/><path d="M1550 2930 q-15 -60 25 -90" stroke="#8A5A3B" stroke-width="22" fill="none" stroke-linecap="round"/><circle cx="1550" cy="3110" r="105" fill="#E9C46A"/><circle cx="1550" cy="3010" r="70" fill="#E9C46A"/><path d="M2900 3030 q-15 -60 25 -90" stroke="#8A5A3B" stroke-width="22" fill="none" stroke-linecap="round"/><circle cx="2900" cy="3210" r="105" fill="#E9C46A"/><circle cx="2900" cy="3110" r="70" fill="#E9C46A"/><path d="M2750 3230 L2530 3090 L2570 3300 Z" fill="#A0673F"/><ellipse cx="3050" cy="3260" rx="330" ry="240" fill="#A0673F"/><ellipse cx="3170" cy="3320" rx="190" ry="150" fill="#D9A26B"/><path d="M2870 3200 Q3030 3380 3170 3220" stroke="#D9A26B" stroke-width="40" fill="none" stroke-linecap="round"/><circle cx="3340" cy="3050" r="150" fill="#A0673F"/><path d="M3475 3025 L3590 3065 L3475 3100 Z" fill="#F2B84B"/><circle cx="3380" cy="3015" r="32" fill="#1A1A1A"/><circle cx="3390" cy="3005" r="10" fill="#FFFFFF"/><path d="M3010 3490 l-30 90 M3130 3490 l30 90" stroke="#F2B84B" stroke-width="36" stroke-linecap="round"/><path d="M563.4636802375943 4900.0H620.123334570804V4838.010972239409H651.5385884585241C699.2224559666709 4838.010972239409 731.1986965309574 4809.961638411088 731.1986965309574 4765.082704285774C731.1986965309574 4720.484263498742 700.0639359815204 4691.032462979004 653.5020418265066 4691.032462979004H563.4636802375943ZM620.123334570804 4793.973518128944V4736.472383780885H640.0383615889123C660.0936352761622 4736.472383780885 672.0146021531989 4746.990883966506 672.0146021531989 4765.082704285774C672.0146021531989 4782.753784597616 660.0936352761622 4793.973518128944 640.0383615889123 4793.973518128944ZM751.9552035639152 4900.0H902.0191395454358V4854.279585859836H808.6148578971249V4816.6934785298845H894.7263127500721V4772.0950377428535H808.6148578971249V4736.752877119168H902.5801262220021V4691.032462979004H751.9552035639152ZM920.9524398795528 4900.0H984.3439343315596L995.8441612011713 4859.8894526255H1060.0771356680277L1072.138349214206 4900.0H1136.3713236810624L1066.107742441117 4691.032462979004H988.6915810749495ZM1007.9053747473497 4817.534958544735C1015.1982015427133 4792.0100647609615 1021.0885616466608 4764.80221094749 1026.8386750814668 4737.454110464876C1033.1497751928391 4764.80221094749 1039.8816153116363 4792.0100647609615 1047.4549354452831 4817.534958544735ZM1156.286350699171 4900.0H1212.9460050323805V4830.998638782329H1232.5805387122057L1269.3251660273068 4900.0H1331.0337004496143L1288.3987130305654 4822.022851957266C1310.6979334240812 4811.364105102504 1324.021366992534 4791.028338076971 1324.021366992534 4761.997277564657C1324.021366992534 4717.67933011591 1292.886606443097 4691.032462979004 1246.3247122880832 4691.032462979004H1156.286350699171ZM1212.9460050323805 4786.961184671864V4736.472383780885H1232.8610320504888C1252.9163057377386 4736.472383780885 1264.8372726147754 4744.185950583674 1264.8372726147754 4761.997277564657C1264.8372726147754 4779.948851214784 1252.9163057377386 4786.961184671864 1232.8610320504888 4786.961184671864ZM1399.7545683290023 4736.752877119168H1462.1643360970177V4900.0H1518.8239904302272V4736.752877119168H1581.2337581982429V4691.032462979004H1399.7545683290023ZM1602.5512519077672 4900.0H1659.2109062409768V4830.998638782329H1678.845439920802L1715.590067235903 4900.0H1777.2986016582106L1734.6636142391617 4822.022851957266C1756.9628346326774 4811.364105102504 1770.2862682011303 4791.028338076971 1770.2862682011303 4761.997277564657C1770.2862682011303 4717.67933011591 1739.1515076516932 4691.032462979004 1692.5896134966795 4691.032462979004H1602.5512519077672ZM1659.2109062409768 4786.961184671864V4736.472383780885H1679.125933259085C1699.181206946335 4736.472383780885 1711.1021738233717 4744.185950583674 1711.1021738233717 4761.997277564657C1711.1021738233717 4779.948851214784 1699.181206946335 4786.961184671864 1679.125933259085 4786.961184671864ZM1794.4086952934867 4900.0H1944.4726312750072V4854.279585859836H1851.0683496266963V4816.6934785298845H1937.1798044796435V4772.0950377428535H1851.0683496266963V4736.752877119168H1945.0336179515734V4691.032462979004H1794.4086952934867ZM1970.4182650662046 4900.0H2120.482201047725V4854.279585859836H2027.0779193994142V4816.6934785298845H2113.1893742523616V4772.0950377428535H2027.0779193994142V4736.752877119168H2121.0431877242913V4691.032462979004H1970.4182650662046ZM2300.699170894691 4902.804933382832C2361.986965309574 4902.804933382832 2392.9814791898693 4859.328465948934 2395.7864125727015 4823.705811986965H2338.2852782246423C2335.4803448418097 4841.51713896795 2322.858144619065 4853.438105844986 2302.1016375861072 4853.438105844986C2274.332797096069 4853.438105844986 2258.3446768139256 4833.943818834303 2258.3446768139256 4795.656478158644C2258.3446768139256 4759.192344181825 2273.912057088644 4737.594357134018 2302.3821309243904 4737.594357134018C2323.419131295632 4737.594357134018 2335.7608381800933 4749.515324011055 2338.0047848863587 4767.326650992039H2395.505919234418C2390.3167924761788 4716.83785010106 2352.7306851462276 4688.227529596172 2300.699170894691 4688.227529596172C2244.4602565689065 4688.227529596172 2200.0020624510166 4725.813636926123 2200.0020624510166 4795.656478158644C2200.0020624510166 4865.078579383739 2243.3382832157736 4902.804933382832 2300.699170894691 4902.804933382832ZM2516.258301365343 4902.804933382832C2573.058202367694 4902.804933382832 2617.796889823867 4865.359072722023 2617.796889823867 4795.656478158644C2617.796889823867 4725.813636926123 2573.058202367694 4688.227529596172 2516.258301365343 4688.227529596172C2459.1779070247085 4688.227529596172 2414.7197129068186 4725.813636926123 2414.7197129068186 4795.656478158644C2414.7197129068186 4864.938332714598 2459.1779070247085 4902.804933382832 2516.258301365343 4902.804933382832ZM2516.258301365343 4853.438105844986C2488.208967537021 4853.438105844986 2473.0623272697276 4833.102338819453 2473.0623272697276 4795.656478158644C2473.0623272697276 4758.070370828693 2488.208967537021 4737.594357134018 2516.258301365343 4737.594357134018C2544.447881862806 4737.594357134018 2559.454275460958 4758.070370828693 2559.454275460958 4795.656478158644C2559.454275460958 4833.102338819453 2544.447881862806 4853.438105844986 2516.258301365343 4853.438105844986ZM2641.0778369013738 4900.0H2699.4204512642827V4823.705811986965C2699.4204512642827 4809.961638411088 2697.8777379037247 4786.961184671864 2696.1947778740255 4762.979004248649C2706.2925380522215 4786.400197995297 2714.0061048550097 4802.388318277441 2727.0490450851794 4823.705811986965L2773.4706925710516 4900.0H2835.179226993359V4691.032462979004H2776.83661263045V4767.607144330323C2776.83661263045 4783.034277935899 2778.659819329291 4808.559171719671 2780.0622860207072 4829.876665429196C2771.507239203069 4806.315225013406 2763.0924390545724 4790.327104731263 2752.573938868952 4773.076764426844L2702.786371323681 4691.032462979004H2641.0778369013738ZM2862.106587468548 4900.0H2918.766241801757V4828.47419873778H3000.10930990389V4783.875757950748H2918.766241801757V4736.752877119168H3009.085096728953V4691.032462979004H2862.106587468548ZM3086.50125809512 4691.032462979004H3029.841603761911V4900.0H3086.50125809512ZM3113.428618570309 4900.0H3170.0882729035184V4830.998638782329H3189.7228065833438L3226.467433898445 4900.0H3288.1759683207524L3245.5409809017037 4822.022851957266C3267.8402012952192 4811.364105102504 3281.163634863672 4791.028338076971 3281.163634863672 4761.997277564657C3281.163634863672 4717.67933011591 3250.028874314235 4691.032462979004 3203.4669801592213 4691.032462979004H3113.428618570309ZM3170.0882729035184 4786.961184671864V4736.472383780885H3190.003299921627C3210.058573608877 4736.472383780885 3221.9795404859133 4744.185950583674 3221.9795404859133 4761.997277564657C3221.9795404859133 4779.948851214784 3210.058573608877 4786.961184671864 3190.003299921627 4786.961184671864ZM3305.2860619560283 4900.0H3362.5067029658044V4819.2179185744335C3362.5067029658044 4803.790784968857 3361.1042362743883 4769.14985769088 3360.5432495978216 4739.417563832859C3367.4153363857604 4770.131584374871 3375.970383203399 4802.809058284865 3381.0192632924964 4819.2179185744335L3405.7026770614193 4900.0H3452.8255578929998L3477.088231654498 4819.2179185744335C3482.2773584127376 4802.248071608299 3491.1128985686587 4767.747390999464 3497.844738687456 4735.911397104319C3497.2837520108897 4766.344924308048 3495.7410386503316 4803.229798292291 3495.7410386503316 4819.2179185744335V4900.0H3552.9616796601076V4691.032462979004H3463.3440580786205L3444.831497751928 4756.387410798993C3440.4838510085383 4771.674297735429 3434.1727508971658 4803.790784968857 3429.2641174772098 4831.138885451471C3424.495730726395 4803.790784968857 3417.904137276739 4771.674297735429 3413.5564905333495 4756.387410798993L3394.763436868374 4691.032462979004H3305.2860619560283ZM3579.889040135297 4900.0H3729.9529761168174V4854.279585859836H3636.5486944685063V4816.6934785298845H3722.660149321454V4772.0950377428535H3636.5486944685063V4736.752877119168H3730.5139627933836V4691.032462979004H3579.889040135297ZM3836.4001979952977 4900.0C3899.931939116446 4900.0 3940.1827331600875 4860.871179309492 3940.1827331600875 4795.656478158644C3940.1827331600875 4730.301530338655 3899.931939116446 4691.032462979004 3835.558717980448 4691.032462979004H3755.898609908015V4900.0ZM3812.558264241224 4851.755145815287V4739.277317163717H3832.4732912593327C3865.291011838469 4739.277317163717 3883.2425854885946 4751.899517386462 3883.2425854885946 4795.656478158644C3883.2425854885946 4839.273192261684 3865.291011838469 4851.755145815287 3834.156251289032 4851.755145815287Z" fill="#F4EAD5" /></svg>